<?xml version="1.0" encoding="UTF-8" standalone="no"?>
<!DOCTYPE svg PUBLIC "-//W3C//DTD SVG 1.1//EN" "http://www.w3.org/Graphics/SVG/1.1/DTD/svg11.dtd">
<svg width="100%" height="100%" viewBox="0 0 2134 2134" version="1.1" xmlns="http://www.w3.org/2000/svg" xmlns:xlink="http://www.w3.org/1999/xlink" xml:space="preserve" xmlns:serif="http://www.serif.com/" style="fill-rule:evenodd;clip-rule:evenodd;stroke-linejoin:round;stroke-miterlimit:2;">
    <g transform="matrix(4.16667,0,0,4.16667,95.8333,-0.00157629)">
        <path d="M211.774,45.652L61.266,132.452C48.148,140.016 40,154.123 40,169.266L40,342.733C40,357.877 48.148,371.983 61.265,379.548L211.774,466.349C224.867,473.901 241.132,473.901 254.225,466.349L404.734,379.548C417.852,371.984 426,357.877 426,342.733L426,169.266C426,154.122 417.852,140.016 404.735,132.451L254.226,45.652C241.138,38.103 224.868,38.1 211.774,45.652ZM191.793,501.006L41.284,414.205C15.819,399.52 0,372.133 0,342.733L0,169.266C0,139.866 15.819,112.479 41.285,97.795L191.793,10.994C217.21,-3.663 248.791,-3.664 274.207,10.994L424.716,97.795C450.181,112.48 466,139.867 466,169.266L466,342.733C466,372.133 450.181,399.52 424.715,414.205L274.207,501.006C248.794,515.662 217.214,515.667 191.793,501.006Z" style="fill:rgb(10,5,11);fill-rule:nonzero;"/>
    </g>
    <g transform="matrix(1.2465,0,0,1.2465,90.2196,90.0953)">
        <path d="M633.333,433.333C633.333,378.2 588.467,333.333 533.333,333.333C478.2,333.333 433.333,378.2 433.333,433.333C433.333,488.467 478.2,533.333 533.333,533.333C588.467,533.333 633.333,488.467 633.333,433.333ZM1036.57,661.367C1069.43,677.967 1109.53,664.833 1126.17,631.967C1142.8,599.133 1129.63,559 1096.8,542.367C955.567,470.9 785.5,498.067 673.5,610.133C531.5,752.5 531.5,984.233 673.633,1126.77C743.933,1196.83 837.067,1233.57 931.6,1233.57C987.7,1233.57 1044.27,1220.63 1096.8,1194.03C1129.63,1177.4 1142.8,1137.3 1126.17,1104.43C1109.57,1071.57 1069.47,1058.43 1036.57,1075.03C946.9,1120.33 838.867,1103.2 767.867,1032.47C677.633,942 677.633,794.767 767.8,704.333C838.867,633.3 946.833,615.967 1036.57,661.367Z" style="fill-rule:nonzero;"/>
    </g>
</svg>
